<?xml version="1.0" encoding="utf-8"?>
<!-- Generator: Adobe Illustrator 24.0.2, SVG Export Plug-In . SVG Version: 6.00 Build 0)  -->
<svg version="1.1" id="Layer_1" xmlns="http://www.w3.org/2000/svg" xmlns:xlink="http://www.w3.org/1999/xlink" x="0px" y="0px"
	 viewBox="0 0 612 792" style="enable-background:new 0 0 612 792;" xml:space="preserve">
<style type="text/css">
	.st0{fill:#FFFFFF;}
</style>
<g>
	<g>
		<path class="st0" d="M71,216c156.64,0,313.27,0,470,0c0,119.94,0,239.9,0,360c-156.61,0-313.3,0-470,0C71,456.06,71,336.04,71,216
			z M275.38,429.14c0.7,1.95,1.25,3.63,1.88,5.27c3.6,9.38,8.25,12.8,17.13,12.61c5.36-0.11,12.28-5.26,13.5-10.03
			c2.03-7.97-0.45-13.82-6.98-17.46c-9-5.02-18.57-3.86-28.03-2.64c-8.78,1.13-16.01,5.17-21.02,12.95
			c-8.54,13.26-8.08,30.03-0.9,40.33c12.31,17.66,33.45,21.24,52.03,18.24c13.25-2.14,23.45-9.87,32.26-19.96
			c6.69-7.66,11.96-15.95,15.8-25.29c6.44-15.65,11-31.81,13.11-48.59c2.15-17.11,4.48-34.23,5.62-51.43
			c0.74-11.2,0.06-22.58-0.98-33.79c-1.27-13.59-5.4-26.54-15.47-36.31c-17.08-16.57-37.67-20.39-60.22-14.41
			c-20.18,5.35-33.82,18.76-41.4,37.64c-6.21,15.46-6.23,32.08-3.4,48.33c2.73,15.71,11.04,28.53,24.42,37.39
			c11.5,7.62,24.34,10.43,38.25,9.14c9.68-0.9,18.53-3.86,26.8-8.62c4.16-2.39,7.83-5.62,12.81-9.27
			c-0.99,4.63-1.89,8.05-2.43,11.52c-3.52,22.57-8.58,44.62-20.09,64.72c-9.81,17.11-30.82,28.81-52.6,19.48
			c-7.48-3.2-12.77-10.31-12.39-18.48C263.5,441.73,264.08,432.67,275.38,429.14z M137.89,490.76c-1.48,0.46-2.98,1.15-4.56,1.38
			c-8.42,1.26-14.11,13.66-11.69,19.55c1.51,3.66,5.16,7.75,8.75,8.95c5.86,1.96,12.99,1.45,17.08-3.96
			c14.98-19.81,5.82-43.41-14.81-51.52c-15.53-6.11-33.49,1.54-43.49,15.95c-11,15.85-14.8,33.73-10.9,52.61
			c3.27,15.86,11.88,28.14,27.47,34.68c8.98,3.77,18.07,4.79,27.79,3.79c13.56-1.39,25.01-6.87,34.16-16.57
			c9.66-10.23,16.59-22.37,20.3-35.99c3.38-12.43,6.37-24.99,8.83-37.63c2.21-11.41,3.68-22.98,5.07-34.52
			c1.04-8.67,1.38-17.42,2.13-26.13c1.27-14.77,2.63-29.53,3.93-44.29c0.71-8.05,1.03-16.16,2.17-24.14
			c1.62-11.33,3.94-22.56,5.77-33.86c0.8-4.93-1.97-8.03-6.87-7.91c-3.44,0.08-6.87,0.9-10.3,0.87c-6.46-0.06-13.02,0.11-19.36-0.93
			c-10.81-1.78-21.2-5.99-32.47-5c-7.55,0.66-14.29,3.39-19.13,9.02c-9.44,10.98-13.05,23.92-9.57,38.15
			c3.1,12.66,12.71,23.68,26.85,22.76c8.18-0.53,13.05-5.74,12.91-14.15c-0.11-6.56-5.89-11.85-13.28-11.66
			c-4.47,0.12-8.92,0.92-13.96,1.48c0.31-3.04,0.17-6.08,0.97-8.85c4.59-15.91,16.66-19.82,31.2-17.47
			c9.82,1.59,19.58,3.64,29.3,5.75c0.93,0.2,2.18,2.33,2.06,3.43c-1.23,10.93-3.03,21.81-4.06,32.76
			c-1.32,13.96-1.99,27.98-3.09,41.96c-1.24,15.77-2.21,31.58-4.11,47.28c-1.77,14.61-4.11,29.19-7.09,43.6
			c-2.98,14.39-8.8,27.87-18.53,39.04c-9.47,10.87-21.72,15.69-36.45,15.24c-9.44-0.29-19.46-6.63-23.17-16.65
			c-5.2-14.07-2.8-27.42,3.19-40.46c4.25-9.26,10.14-16.8,21.07-18.93C129.16,476.97,137.64,483.16,137.89,490.76z M415.85,394.53
			c2.08,0.58,3.35,0.8,4.5,1.29c3.89,1.68,7.61,3.84,11.61,5.14c12.11,3.91,24.45,4.98,37.27,4.25c16.85-0.95,32.2-5.71,46.36-14.5
			c14.69-9.12,22.93-22.6,23.21-39.83c0.21-13.21-6.03-24.05-16.9-31.76c-16.73-11.87-35.71-12.39-54.53-8.35
			c-26.71,5.73-45.36,23.29-58.48,46.31c-14,24.56-19.25,51.19-13.71,79.33c4.85,24.65,19.58,41.04,42.99,49.59
			c13.46,4.91,27.46,5.21,41.45,2.9c10.63-1.76,20.02-6.64,27.37-14.5c8.21-8.78,11.8-19.4,11.14-31.62
			c-0.52-9.56-5.89-18.65-13.82-21.51c-9.6-3.46-23.12-0.61-28.92,6.11c-3.91,4.53-4.34,10.95-1.07,16.03
			c2.95,4.59,9.01,6.3,14.84,4.71c6.12-1.67,9.79-6.01,13.38-12.23c0.7,3.7,1.57,6.19,1.56,8.67c-0.06,13.73-6.59,19.87-19.24,25.57
			c-8.12,3.66-16.76,3.33-25.32,3c-11.52-0.45-21.71-4.49-30.32-12.26c-12.49-11.26-15.5-26.35-16.01-42
			C412.94,411.11,414.82,403.28,415.85,394.53z M183.98,222.04c-9.06,0.01-16.95,9.64-15.87,19.31
			c1.18,10.62,4.68,20.22,11.46,28.67c6.49,8.08,17.13,12.79,25.55,10.3c16.83-4.97,28.26-15.2,31.7-33.12
			c1.54-7.99-1.7-16.07-8.61-20.49c-8.01-5.12-16.9-4.63-24.89,1.66c-1.98,1.56-3.44,2.62-5.29,0.07
			C194.57,223.66,189.65,222,183.98,222.04z"/>
		<path d="M275.38,429.14c-11.3,3.53-11.88,12.6-12.29,21.33c-0.39,8.16,4.91,15.27,12.39,18.48c21.78,9.33,42.8-2.37,52.6-19.48
			c11.52-20.1,16.58-42.15,20.09-64.72c0.54-3.47,1.44-6.89,2.43-11.52c-4.98,3.65-8.66,6.88-12.81,9.27
			c-8.27,4.76-17.12,7.72-26.8,8.62c-13.91,1.29-26.75-1.52-38.25-9.14c-13.38-8.86-21.69-21.68-24.42-37.39
			c-2.83-16.25-2.81-32.87,3.4-48.33c7.58-18.88,21.21-32.29,41.4-37.64c22.54-5.97,43.14-2.15,60.22,14.41
			c10.07,9.77,14.2,22.72,15.47,36.31c1.05,11.21,1.73,22.59,0.98,33.79c-1.14,17.19-3.47,34.31-5.62,51.43
			c-2.11,16.78-6.67,32.95-13.11,48.59c-3.84,9.34-9.11,17.63-15.8,25.29c-8.81,10.1-19.01,17.83-32.26,19.96
			c-18.58,3-39.72-0.58-52.03-18.24c-7.18-10.3-7.64-27.07,0.9-40.33c5.01-7.78,12.25-11.82,21.02-12.95
			c9.46-1.22,19.03-2.37,28.03,2.64c6.53,3.64,9.01,9.48,6.98,17.46c-1.22,4.77-8.14,9.92-13.5,10.03
			c-8.88,0.18-13.53-3.23-17.13-12.61C276.63,432.76,276.07,431.09,275.38,429.14z M265.71,327.54c0.4,3.58,0.62,7.54,1.31,11.41
			c1.45,8.16,4.32,15.8,10.21,21.82c10.02,10.23,21.95,14.55,36.5,12.52c10.16-1.42,18.48-6.02,25.29-12.91
			c8.23-8.32,11.95-19.15,11.97-30.81c0.01-7.69-0.42-15.57-2.09-23.04c-2.1-9.38-5.55-18.38-14.06-24.47
			c-6.51-4.66-13.48-6.55-21.41-7.4c-14.93-1.6-26.31,3.6-35.76,14.83C268.41,300.5,266.74,313.64,265.71,327.54z"/>
		<path d="M137.89,490.76c-0.25-7.59-8.73-13.79-15.89-12.39c-10.93,2.13-16.82,9.67-21.07,18.93c-5.99,13.04-8.39,26.4-3.19,40.46
			c3.7,10.02,13.72,16.36,23.17,16.65c14.73,0.45,26.98-4.37,36.45-15.24c9.73-11.17,15.54-24.65,18.53-39.04
			c2.99-14.41,5.33-28.99,7.09-43.6c1.9-15.69,2.87-31.5,4.11-47.28c1.1-13.98,1.77-28,3.09-41.96c1.03-10.95,2.83-21.83,4.06-32.76
			c0.12-1.1-1.13-3.22-2.06-3.43c-9.73-2.11-19.48-4.16-29.3-5.75c-14.54-2.35-26.61,1.56-31.2,17.47c-0.8,2.77-0.66,5.8-0.97,8.85
			c5.03-0.56,9.49-1.37,13.96-1.48c7.39-0.19,13.17,5.1,13.28,11.66c0.14,8.41-4.73,13.61-12.91,14.15
			c-14.13,0.92-23.75-10.1-26.85-22.76c-3.48-14.22,0.13-27.17,9.57-38.15c4.84-5.63,11.57-8.35,19.13-9.02
			c11.28-0.99,21.67,3.22,32.47,5c6.34,1.04,12.9,0.86,19.36,0.93c3.43,0.03,6.86-0.78,10.3-0.87c4.91-0.12,7.67,2.99,6.87,7.91
			c-1.83,11.3-4.14,22.53-5.77,33.86c-1.14,7.99-1.46,16.09-2.17,24.14c-1.31,14.76-2.66,29.52-3.93,44.29
			c-0.75,8.71-1.08,17.46-2.13,26.13c-1.39,11.55-2.86,23.11-5.07,34.52c-2.45,12.64-5.44,25.21-8.83,37.63
			c-3.71,13.62-10.64,25.77-20.3,35.99c-9.15,9.69-20.6,15.17-34.16,16.57c-9.72,1-18.81-0.03-27.79-3.79
			c-15.59-6.54-24.2-18.82-27.47-34.68c-3.9-18.88-0.1-36.76,10.9-52.61c10-14.41,27.96-22.05,43.49-15.95
			c20.63,8.11,29.79,31.7,14.81,51.52c-4.09,5.41-11.22,5.93-17.08,3.96c-3.59-1.2-7.24-5.29-8.75-8.95
			c-2.43-5.89,3.27-18.29,11.69-19.55C134.91,491.9,136.41,491.22,137.89,490.76z"/>
		<path d="M415.85,394.53c-1.03,8.75-2.91,16.58-2.65,24.34c0.52,15.64,3.53,30.74,16.01,42c8.62,7.77,18.8,11.82,30.32,12.26
			c8.56,0.33,17.21,0.65,25.32-3c12.64-5.7,19.18-11.84,19.24-25.57c0.01-2.49-0.87-4.97-1.56-8.67
			c-3.58,6.23-7.26,10.56-13.38,12.23c-5.83,1.59-11.88-0.12-14.84-4.71c-3.27-5.09-2.84-11.5,1.07-16.03
			c5.8-6.72,19.32-9.58,28.92-6.11c7.92,2.86,13.3,11.96,13.82,21.51c0.66,12.22-2.93,22.84-11.14,31.62
			c-7.35,7.86-16.74,12.74-27.37,14.5c-13.99,2.31-27.98,2.02-41.45-2.9c-23.41-8.55-38.14-24.94-42.99-49.59
			c-5.54-28.14-0.29-54.78,13.71-79.33c13.13-23.02,31.77-40.58,58.48-46.31c18.82-4.04,37.81-3.51,54.53,8.35
			c10.87,7.71,17.11,18.56,16.9,31.76c-0.28,17.22-8.51,30.71-23.21,39.83c-14.16,8.79-29.51,13.54-46.36,14.5
			c-12.82,0.72-25.16-0.35-37.27-4.25c-4-1.29-7.72-3.45-11.61-5.14C419.2,395.32,417.92,395.11,415.85,394.53z M459.34,389.11
			c10.4,0.52,20.91-1.12,30.99-4.99c13.91-5.34,26.16-12.51,29.27-28.91c2.47-13.01-1.91-25.74-17.02-28.16
			c-6.36-1.02-12.92-1.17-19.38-1.03c-17.58,0.38-31.08,9.58-42.92,21.38c-7.84,7.81-13.01,17.59-17.03,27.93
			c-1.35,3.46-0.93,5.52,2.68,7.34C436.38,387.92,447.45,389.41,459.34,389.11z"/>
		<path d="M183.98,222.04c5.67-0.03,10.59,1.62,14.06,6.41c1.85,2.54,3.31,1.49,5.29-0.07c7.99-6.29,16.88-6.78,24.89-1.66
			c6.92,4.42,10.15,12.5,8.61,20.49c-3.45,17.92-14.87,28.15-31.7,33.12c-8.42,2.49-19.06-2.23-25.55-10.3
			c-6.78-8.45-10.28-18.05-11.46-28.67C167.03,231.68,174.92,222.05,183.98,222.04z M186.11,246.35
			c0.88,11.09,11.03,19.92,19.33,16.39c6.39-2.72,10.5-7.77,11.33-14.7c0.24-2.02-1.19-5.15-2.86-6.31
			c-3.22-2.24-7.23-1.71-10.39,0.59c-2.26,1.65-3.49,1.94-5.93,0.05c-1.87-1.45-5.22-2.31-7.38-1.66
			C188.44,241.23,187.45,244.37,186.11,246.35z"/>
		<path class="st0" d="M265.71,327.54c1.03-13.9,2.7-27.04,11.97-38.04c9.45-11.23,20.83-16.43,35.76-14.83
			c7.93,0.85,14.91,2.75,21.41,7.4c8.51,6.09,11.96,15.09,14.06,24.47c1.67,7.47,2.1,15.34,2.09,23.04
			c-0.02,11.66-3.74,22.49-11.97,30.81c-6.81,6.88-15.12,11.49-25.29,12.91c-14.55,2.03-26.48-2.3-36.5-12.52
			c-5.9-6.02-8.76-13.66-10.21-21.82C266.33,335.08,266.11,331.12,265.71,327.54z"/>
		<path class="st0" d="M459.34,389.11c-11.89,0.3-22.96-1.19-33.4-6.44c-3.61-1.82-4.03-3.88-2.68-7.34
			c4.02-10.34,9.18-20.12,17.03-27.93c11.84-11.79,25.34-20.99,42.92-21.38c6.46-0.14,13.02,0.01,19.38,1.03
			c15.11,2.42,19.49,15.15,17.02,28.16c-3.11,16.4-15.36,23.57-29.27,28.91C480.25,387.99,469.74,389.63,459.34,389.11z"/>
		<path class="st0" d="M186.11,246.35c1.34-1.98,2.34-5.12,4.11-5.65c2.16-0.65,5.51,0.21,7.38,1.66c2.43,1.89,3.67,1.6,5.93-0.05
			c3.16-2.31,7.17-2.84,10.39-0.59c1.67,1.17,3.1,4.29,2.86,6.31c-0.83,6.93-4.94,11.99-11.33,14.7
			C197.14,266.27,186.99,257.44,186.11,246.35z"/>
	</g>
</g>
</svg>
